<svg width="40" height="40" viewBox="0 0 40 40" fill="none" xmlns="http://www.w3.org/2000/svg">
<mask id="path-1-inside-1_1241_715" fill="white">
<path d="M20 4C29.3885 4.00008 36.9998 10.4001 37 18.2949C37 21.4697 35.7677 24.402 33.6855 26.7744L35.123 30.1553C35.4133 30.8381 34.8297 31.5786 34.0596 31.5049L27.9717 30.9229C25.594 31.9865 22.881 32.5908 20 32.5908C10.6113 32.5908 3 26.19 3 18.2949C3.00025 10.4 10.6114 4 20 4Z"/>
</mask>
<path d="M20 4L20 1H20V4ZM37 18.2949H40V18.2948L37 18.2949ZM33.6855 26.7744L31.4308 24.7955L30.1869 26.2128L30.9247 27.9483L33.6855 26.7744ZM35.123 30.1553L37.884 28.9817L37.8839 28.9814L35.123 30.1553ZM34.0596 31.5049L34.3453 28.5185L34.3451 28.5185L34.0596 31.5049ZM27.9717 30.9229L28.2572 27.9365L27.4692 27.8611L26.7467 28.1844L27.9717 30.9229ZM20 32.5908V35.5908H20L20 32.5908ZM3 18.2949L0 18.2948V18.2949H3ZM20 4L20 7C28.2398 7.00007 33.9998 12.5231 34 18.295L37 18.2949L40 18.2948C39.9997 8.27708 30.5372 1.00009 20 1L20 4ZM37 18.2949H34C34 20.6624 33.0874 22.9079 31.4308 24.7955L33.6855 26.7744L35.9403 28.7533C38.4479 25.8961 40 22.277 40 18.2949H37ZM33.6855 26.7744L30.9247 27.9483L32.3622 31.3291L35.123 30.1553L37.8839 28.9814L36.4464 25.6006L33.6855 26.7744ZM35.123 30.1553L32.3621 31.3289C31.6558 29.6673 33.1287 28.4021 34.3453 28.5185L34.0596 31.5049L33.7738 34.4912C36.5307 34.7551 39.1707 32.0088 37.884 28.9817L35.123 30.1553ZM34.0596 31.5049L34.3451 28.5185L28.2572 27.9365L27.9717 30.9229L27.6862 33.9092L33.7741 34.4913L34.0596 31.5049ZM27.9717 30.9229L26.7467 28.1844C24.7572 29.0743 22.462 29.5908 20 29.5908L20 32.5908L20 35.5908C23.3001 35.5908 26.4308 34.8986 29.1967 33.6613L27.9717 30.9229ZM20 32.5908V29.5908C11.7602 29.5908 6 24.0672 6 18.2949H3H0C0 28.3128 9.46232 35.5908 20 35.5908V32.5908ZM3 18.2949L6 18.295C6.00018 12.523 11.7602 7 20 7V4V1C9.46266 1 0.00031662 8.27705 0 18.2948L3 18.2949Z" fill="#5B5B5B" mask="url(#path-1-inside-1_1241_715)"/>
<circle cx="12.2713" cy="18.6814" r="2.31816" fill="#5B5B5B"/>
<circle cx="20.0008" cy="18.6814" r="2.31816" fill="#5B5B5B"/>
<circle cx="27.7273" cy="18.6814" r="2.31816" fill="#5B5B5B"/>
</svg>
