<svg width="40" height="40" viewBox="0 0 40 40" fill="none" xmlns="http://www.w3.org/2000/svg">
<path d="M19.8027 4.39551C27.2876 4.39551 33.3554 10.6555 33.3555 18.3779C33.3555 24.7415 29.2348 30.1106 23.5967 31.8037C23.5919 32.0012 23.5428 32.2029 23.4355 32.3945L20.916 36.8965C20.4291 37.7667 19.1774 37.7667 18.6904 36.8965L16.1709 32.3945C16.0638 32.2032 16.0137 32.0019 16.0088 31.8047C10.3707 30.1116 6.25 24.7415 6.25 18.3779C6.25012 10.6556 12.318 4.39557 19.8027 4.39551ZM19.8984 7.62207C14.0176 7.62209 9.25023 12.5338 9.25 18.5928C9.25 24.652 14.0175 29.5644 19.8984 29.5645C25.7794 29.5645 30.5469 24.652 30.5469 18.5928C30.5466 12.5338 25.7793 7.62207 19.8984 7.62207Z" fill="#5B5B5B"/>
<g filter="url(#filter0_d_1309_1827)">
<path d="M10.6723 6.36066C9.55093 5.10595 7.49854 6.29333 8.41643 8.27152C9.02787 9.59135 10.2092 12.8168 11.8584 15.1399C13.5083 17.4631 15.2665 17.2147 17.0423 17.7773L18.3182 18.42L27.0462 28.1981L28.8113 26.7025L28.8205 26.695C28.5625 26.4055 20.6248 17.5117 17.4863 13.996C14.38 10.5161 11.2177 6.9719 10.6723 6.36066Z" fill="#5B5B5B"/>
<path d="M31.6179 8.1953L28.573 11.6078C28.3779 11.8263 28.0392 11.8487 27.8149 11.6587L27.7066 11.5674C27.4839 11.3782 27.4593 11.0482 27.6544 10.8297L30.7137 7.40153C31.2161 6.83965 30.978 6.34209 30.6046 6.02634C30.2321 5.71136 29.6937 5.55047 29.1913 6.11315L26.1319 9.54137C25.9376 9.7591 25.5981 9.78228 25.3746 9.59227L25.267 9.50101C25.0427 9.31172 25.0189 8.98103 25.2133 8.7633L28.2588 5.35079C29.1583 4.34374 27.6543 3.13016 26.7764 4.11404C25.7248 5.2917 23.8683 7.37165 23.8683 7.37165C22.2461 9.1763 22.2707 10.0217 22.4995 11.2061C22.6854 12.1608 22.9581 12.8476 21.9511 13.9759L20.4648 15.6414L22.0241 17.3869L23.727 15.479C24.7333 14.3515 25.4699 14.5191 26.4661 14.5647C27.7028 14.6223 28.5654 14.528 30.1738 12.7129C30.1738 12.7129 32.0303 10.6315 33.0819 9.45379C33.9598 8.46992 32.5165 7.18902 31.6179 8.1953Z" fill="#5B5B5B"/>
<path d="M17.3175 19.168L10.5996 26.6948L12.3747 28.1986L18.9543 20.8274L17.6002 19.3101L17.3175 19.168Z" fill="#5B5B5B"/>
</g>
<defs>
<filter id="filter0_d_1309_1827" x="7.18652" y="2.75" width="27.168" height="26.4482" filterUnits="userSpaceOnUse" color-interpolation-filters="sRGB">
<feFlood flood-opacity="0" result="BackgroundImageFix"/>
<feColorMatrix in="SourceAlpha" type="matrix" values="0 0 0 0 0 0 0 0 0 0 0 0 0 0 0 0 0 0 127 0" result="hardAlpha"/>
<feOffset/>
<feGaussianBlur stdDeviation="0.5"/>
<feComposite in2="hardAlpha" operator="out"/>
<feColorMatrix type="matrix" values="0 0 0 0 0.137255 0 0 0 0 0.137255 0 0 0 0 0.137255 0 0 0 0.25 0"/>
<feBlend mode="normal" in2="BackgroundImageFix" result="effect1_dropShadow_1309_1827"/>
<feBlend mode="normal" in="SourceGraphic" in2="effect1_dropShadow_1309_1827" result="shape"/>
</filter>
</defs>
</svg>
