<svg width="40" height="40" viewBox="0 0 40 40" fill="none" xmlns="http://www.w3.org/2000/svg">
<path d="M28.8556 24.1535V18.9082L28.8418 18.5583C28.5992 14.9588 25.3223 11.9589 21.4984 11.9498L19.4629 11.9457H19.4621C15.5272 11.9364 12.1718 15.1474 12.1455 18.9001V24.1543C12.1455 25.3415 12.003 26.7433 11.1811 27.9966L10.7823 28.6053L10.7807 28.607C10.7792 28.6092 10.7782 28.6113 10.7774 28.6127V28.6135H30.2229V28.6127C30.2222 28.6112 30.2215 28.6089 30.2197 28.6061L30.2188 28.6053L29.8201 27.9966L29.8192 27.9958C28.9999 26.7436 28.8557 25.342 28.8556 24.1535ZM18.0956 31.3912C18.2159 31.5995 18.3629 31.7935 18.5359 31.9666C19.0569 32.4875 19.7638 32.7804 20.5006 32.7804C21.2373 32.7804 21.9443 32.4875 22.4652 31.9666C22.6382 31.7935 22.7852 31.5994 22.9055 31.3912H18.0956ZM31.6333 24.1535C31.6334 25.1587 31.7685 25.9013 32.1428 26.4738L32.5416 27.081L32.6458 27.2535C33.6521 29.0479 32.4091 31.3912 30.2441 31.3912H25.8794C25.6333 32.344 25.1368 33.2235 24.4291 33.9312C23.3872 34.973 21.974 35.5581 20.5006 35.5581C19.0272 35.5581 17.614 34.973 16.5721 33.9312C15.8644 33.2235 15.3679 32.344 15.1218 31.3912H10.7571C8.52472 31.3912 7.2657 28.8955 8.46039 27.0802L8.85755 26.4738L8.9251 26.364C9.24893 25.8079 9.36784 25.0986 9.36784 24.1543V18.8806C9.40555 13.4915 14.1139 9.15587 19.4678 9.16799L21.5049 9.17125H21.5057C26.8477 9.18423 31.5678 13.4829 31.6333 18.8749V24.1535Z" fill="#5B5B5B"/>
<path d="M20.5006 6.38965C21.2374 6.38965 21.944 6.68233 22.4649 7.20329C22.9859 7.72426 23.2786 8.43085 23.2786 9.16761V10.5566H17.7227V9.16761C17.7227 8.43085 18.0153 7.72426 18.5363 7.20329C19.0573 6.68233 19.7639 6.38965 20.5006 6.38965Z" fill="#FAFAF8"/>
<path d="M21.8902 9.16695C21.8901 8.79873 21.7436 8.44584 21.4833 8.18543C21.2228 7.92495 20.8693 7.77851 20.5009 7.77851C20.1326 7.77858 19.7798 7.92501 19.5194 8.18543C19.259 8.44586 19.1126 8.79866 19.1125 9.16695H21.8902ZM24.6679 10.5562C24.6679 11.3232 24.0464 11.9453 23.2794 11.9455H17.7232C16.9561 11.9455 16.334 11.3233 16.334 10.5562V9.16695C16.3341 8.0619 16.7734 7.00217 17.5548 6.22078C18.3362 5.4394 19.3959 5.00007 20.5009 5C21.6061 5 22.6665 5.43933 23.4479 6.22078C24.2292 7.00216 24.6678 8.06196 24.6679 9.16695V10.5562Z" fill="#5B5B5B"/>
</svg>
