<svg width="24" height="24" viewBox="0 0 24 24" fill="none" xmlns="http://www.w3.org/2000/svg">
<circle cx="12" cy="12" r="12" fill="#D9D9D9"/>
<mask id="mask0_389_1095" style="mask-type:alpha" maskUnits="userSpaceOnUse" x="4" y="4" width="16" height="16">
<rect x="4" y="4" width="16" height="16" fill="#D9D9D9"/>
</mask>
<g mask="url(#mask0_389_1095)">
<path d="M12 15.6667C12.8333 15.6667 13.5416 15.375 14.125 14.7917C14.7083 14.2083 15 13.5 15 12.6667C15 11.8333 14.7083 11.125 14.125 10.5417C13.5416 9.95832 12.8333 9.66665 12 9.66665C11.1666 9.66665 10.4583 9.95832 9.87498 10.5417C9.29165 11.125 8.99998 11.8333 8.99998 12.6667C8.99998 13.5 9.29165 14.2083 9.87498 14.7917C10.4583 15.375 11.1666 15.6667 12 15.6667ZM12 14.3333C11.5333 14.3333 11.1389 14.1722 10.8166 13.85C10.4944 13.5278 10.3333 13.1333 10.3333 12.6667C10.3333 12.2 10.4944 11.8055 10.8166 11.4833C11.1389 11.1611 11.5333 11 12 11C12.4666 11 12.8611 11.1611 13.1833 11.4833C13.5055 11.8055 13.6666 12.2 13.6666 12.6667C13.6666 13.1333 13.5055 13.5278 13.1833 13.85C12.8611 14.1722 12.4666 14.3333 12 14.3333ZM6.66665 18C6.29998 18 5.98609 17.8694 5.72498 17.6083C5.46387 17.3472 5.33331 17.0333 5.33331 16.6667V8.66665C5.33331 8.29998 5.46387 7.9861 5.72498 7.72498C5.98609 7.46387 6.29998 7.33332 6.66665 7.33332H8.76665L9.99998 5.99998H14L15.2333 7.33332H17.3333C17.7 7.33332 18.0139 7.46387 18.275 7.72498C18.5361 7.9861 18.6666 8.29998 18.6666 8.66665V16.6667C18.6666 17.0333 18.5361 17.3472 18.275 17.6083C18.0139 17.8694 17.7 18 17.3333 18H6.66665ZM6.66665 16.6667H17.3333V8.66665H14.6333L13.4166 7.33332H10.5833L9.36665 8.66665H6.66665V16.6667Z" fill="#1C1B1F"/>
</g>
</svg>
