<svg width="27" height="14" viewBox="0 0 27 14" fill="none" xmlns="http://www.w3.org/2000/svg">
<path d="M6.66699 0.5H11.5V2.16699H6.66699C5.42479 2.16699 4.3521 2.60688 3.47949 3.47949C2.60688 4.3521 2.16699 5.42479 2.16699 6.66699C2.16707 7.90898 2.60707 8.98101 3.47949 9.85352C4.3521 10.7261 5.42479 11.167 6.66699 11.167H11.5V12.833H6.66699C4.95467 12.833 3.5096 12.2352 2.30371 11.0293C1.09801 9.82352 0.500076 8.37909 0.5 6.66699C0.5 4.95467 1.09782 3.5096 2.30371 2.30371C3.5096 1.09782 4.95467 0.5 6.66699 0.5ZM20 0.5C21.7123 0.5 23.1574 1.09782 24.3633 2.30371C25.5691 3.50957 26.167 4.95475 26.167 6.66699C26.1669 8.37902 25.5689 9.82355 24.3633 11.0293C23.1574 12.2352 21.7123 12.833 20 12.833H15.167V11.167H20C21.2421 11.167 22.3139 10.726 23.1865 9.85352C24.0591 8.98098 24.4999 7.90906 24.5 6.66699C24.5 5.42479 24.0591 4.3521 23.1865 3.47949C22.314 2.6071 21.2421 2.16699 20 2.16699H15.167V0.5H20ZM18.167 5.83301V7.5H8.5V5.83301H18.167Z" fill="#1C1B1F" stroke="black"/>
</svg>
